<?xml version="1.0" encoding="UTF-8"?>
<svg xmlns="http://www.w3.org/2000/svg" xmlns:xlink="http://www.w3.org/1999/xlink" width="92.303mm" height="92.106mm" viewBox="168.441910 -229.211639 92.303024 92.105988">
    <path transform="matrix(1,0,0,-1,0,0)" style="stroke:none;fill:#000000;fill-rule:evenodd" d="M206.582993,228.689499C192.266281,226.168427,179.759735,216.838837,173.397141,203.933624C166.755066,190.461517,166.791443,175.506332,173.498596,162.237701C180.364136,148.655746,193.410233,139.397629,208.66658,137.280853L209.929367,137.105652L209.857056,141.812759L209.784744,146.519882L208.06517,146.816544C200.39325,148.140167,193.599503,151.785492,188.088058,157.535706C185.142441,160.608917,183.501678,162.898438,181.690796,166.462448C175.612549,178.425018,176.448044,192.379242,183.91835,203.666412C186.010803,206.828003,190.868835,211.804047,193.669037,213.653992C198.088562,216.57373,202.390289,218.378601,207.271515,219.361145L209.784744,219.867035L209.856995,224.535233C209.913483,228.18515,209.855774,229.1987,209.592438,229.181763C209.407196,229.169861,208.052948,228.948349,206.582993,228.689499z"/>
    <path transform="matrix(1,0,0,-1,0,0)" style="stroke:none;fill:#000000;fill-rule:evenodd" d="M219.500854,224.519211L219.573105,219.826797L221.689514,219.474762C225.932861,218.768936,231.732422,216.3526,235.493347,213.723526C236.427094,213.070801,237.294647,212.536743,237.42128,212.536743C237.6633,212.536743,243.416351,218.582047,243.562515,218.98996C243.726013,219.446259,238.58493,222.856873,235.18158,224.549881C230.370667,226.9431,226.14296,228.243805,220.559052,229.048676L219.428589,229.211639L219.500854,224.519211z"/>
    <path transform="matrix(1,0,0,-1,0,0)" style="stroke:none;fill:#000000;fill-rule:evenodd" d="M247.28476,209.1996C245.50235,207.515289,244.044006,206.035187,244.044006,205.910507C244.044006,205.785812,244.578064,204.91983,245.230789,203.986099C247.848846,200.240921,250.284927,194.403107,251.00174,190.15657L251.354645,188.065857L256.049805,187.993546L260.744934,187.921234L260.568726,189.184021C260.228699,191.620911,259.324402,195.496063,258.545502,197.854218C257.120819,202.16748,253.689056,208.503906,251.133606,211.539581L250.525482,212.261978L247.28476,209.1996z"/>
    <path transform="matrix(1,0,0,-1,0,0)" style="stroke:none;fill:#000000;fill-rule:evenodd" d="M210.18158,194.679611L210.18158,183.171677L200.856552,183.171677L191.53154,183.171677L203.105225,171.597977L214.678925,160.024277L226.252625,171.597977L237.826324,183.171677L228.501297,183.171677L219.176285,183.171677L219.176285,194.679611L219.176285,206.187546L214.678925,206.187546L210.18158,206.187546L210.18158,194.679611z"/>
    <path transform="matrix(1,0,0,-1,0,0)" style="stroke:none;fill:#000000;fill-rule:evenodd" d="M251.337723,177.814529C249.850525,170.662262,248.119202,166.381409,244.930573,161.972198C244.442963,161.297943,244.044006,160.644913,244.044006,160.520996C244.044006,160.397095,245.492126,158.844116,247.262024,157.069962L250.480026,153.844208L251.332397,154.960526C254.301819,158.849442,256.989319,163.838791,258.417603,168.114197C259.248047,170.600067,260.710693,176.891113,260.710693,177.977158C260.710693,178.361099,260.190491,178.40976,256.08609,178.40976C251.503265,178.40976,251.460388,178.404388,251.337723,177.814529z"/>
    <path transform="matrix(1,0,0,-1,0,0)" style="stroke:none;fill:#000000;fill-rule:evenodd" d="M235.18158,152.4646C231.519684,149.888962,225.938828,147.57048,221.663834,146.848862L219.573105,146.495941L219.500793,141.800797L219.428482,137.105652L220.691284,137.282272C228.710571,138.403839,236.715424,141.733368,242.809723,146.482239L243.824127,147.272675L240.565033,150.539642C238.772522,152.336456,237.244598,153.797714,237.169678,153.786865C237.094727,153.776001,236.200104,153.180984,235.18158,152.4646z"/>
</svg>
